<svg xmlns="http://www.w3.org/2000/svg" viewBox="0 0 64 64" width="64" height="64">
  <defs>
    <linearGradient id="saffronGrad" x1="0%" y1="0%" x2="100%" y2="100%">
      <stop offset="0%" stop-color="#FF9933"/>
      <stop offset="100%" stop-color="#E65100"/>
    </linearGradient>
    <linearGradient id="greenGrad" x1="0%" y1="0%" x2="100%" y2="100%">
      <stop offset="0%" stop-color="#138808"/>
      <stop offset="100%" stop-color="#0E6406"/>
    </linearGradient>
  </defs>

  <!-- Dark Blue Rounded Badge Background -->
  <rect width="64" height="64" rx="16" fill="#0D2240"/>

  <!-- Outer Translucent Ring -->
  <circle cx="32" cy="32" r="22" stroke="#FFFFFF" stroke-width="2.5" fill="none" opacity="0.35"/>

  <!-- Inner White Disc with Navy Border -->
  <circle cx="32" cy="32" r="14" stroke="#0033A0" stroke-width="2.2" fill="#FFFFFF"/>

  <!-- Center Hub Dot -->
  <circle cx="32" cy="32" r="3.2" fill="#0033A0"/>

  <!-- Ashok Chakra Spokes -->
  <path d="M32 18 L32 46 M18 32 L46 32 M22 22 L42 42 M22 42 L42 22" stroke="#0033A0" stroke-width="1.8"/>
  <path d="M26 19 L38 45 M19 26 L45 38 M19 38 L45 26 M26 45 L38 19" stroke="#0033A0" stroke-width="1.2"/>

  <!-- Saffron Ribbon Arc (Top Left) -->
  <path d="M4 16 Q12 6 24 8" stroke="url(#saffronGrad)" stroke-width="4.5" stroke-linecap="round" fill="none"/>

  <!-- Green Ribbon Arc (Bottom Right) -->
  <path d="M40 56 Q52 58 60 48" stroke="url(#greenGrad)" stroke-width="4.5" stroke-linecap="round" fill="none"/>
</svg>
